# xmcd
#
# Track frame offsets:
#	151
#	16005
#	35207
#	55821
#	73791
#	97013
#	112833
#	128635
#	143402
#	162765
#	179020
#	193837
#
# Disc length: 2856 seconds
#
# Revision: 1
# Processed by: cddbd v1.5PL3 Copyright (c) Steve Scherf et al.
# Submitted via: audiograbber 1.83.01
#
DISCID=a20b260c
DTITLE=Various Artist - Миллион красивых женщин. Творческий вечер Игоря Николаева.
DYEAR=1900
DGENRE=
TTITLE0=Игорь Николаев. - Миллион красивых женщин.
TTITLE1=Игорь Николаев and Ирина Аллегрова. - Старый знакомый.
TTITLE2=Ирина Аллегрова. - Императрица.
TTITLE3=Игорь Николаев. - Незнакомка.
TTITLE4=Филипп Киркоров. - Немного жаль.
TTITLE5=Леонид Агутин and Анжелика Варум. - Две звезды.
TTITLE6=Владимир Пресняков. - Романс. (Там нет меня)
TTITLE7=Кристина Орбакайте. - Дельфин и русалка.
TTITLE8=Игорь Николаев. - Любить ее так, как я.
TTITLE9=Игорь Николаев and Катя Лель. - Такси, такси.
TTITLE10=Татьяна Овсиенко. - Цепочка.
TTITLE11=Валерий Меладзе. - Малиновое вино.
EXTD=
EXTT0=
EXTT1=
EXTT2=
EXTT3=
EXTT4=
EXTT5=
EXTT6=
EXTT7=
EXTT8=
EXTT9=
EXTT10=
EXTT11=
PLAYORDER=
